<?xml version="1.0" encoding="UTF-8" standalone="no"?>
<!-- Created with Inkscape (http://www.inkscape.org/) -->

<svg
   xmlns:dc="http://purl.org/dc/elements/1.1/"
   xmlns:cc="http://creativecommons.org/ns#"
   xmlns:rdf="http://www.w3.org/1999/02/22-rdf-syntax-ns#"
   xmlns:svg="http://www.w3.org/2000/svg"
   xmlns="http://www.w3.org/2000/svg"
   xmlns:sodipodi="http://sodipodi.sourceforge.net/DTD/sodipodi-0.dtd"
   xmlns:inkscape="http://www.inkscape.org/namespaces/inkscape"
   width="20"
   height="20"
   id="svg27450"
   version="1.1"
   inkscape:version="0.92.2 2405546, 2018-03-11"
   sodipodi:docname="tux1.svg"
   inkscape:export-filename="/home/karol/Programy/Repos/SPMod/resources/tux-sm-bw2.png"
   inkscape:export-xdpi="300"
   inkscape:export-ydpi="300">
  <title
     id="title20046">Tux</title>
  <sodipodi:namedview
     id="base"
     pagecolor="#ffffff"
     bordercolor="#666666"
     borderopacity="0.41176471"
     inkscape:pageopacity="0.0"
     inkscape:pageshadow="2"
     inkscape:zoom="16"
     inkscape:cx="17.21875"
     inkscape:cy="9.328394"
     inkscape:document-units="px"
     inkscape:current-layer="g1768"
     showgrid="false"
     inkscape:window-width="1920"
     inkscape:window-height="1010"
     inkscape:window-x="0"
     inkscape:window-y="33"
     inkscape:window-maximized="1"
     fit-margin-top="0"
     fit-margin-left="0"
     fit-margin-right="0"
     fit-margin-bottom="0"
     showguides="true"
     inkscape:guide-bbox="true"
     inkscape:showpageshadow="false"
     showborder="true"
     inkscape:snap-global="false" />
  <defs
     id="defs27452" />
  <metadata
     id="metadata27455">
    <rdf:RDF>
      <cc:Work
         rdf:about="">
        <dc:format>image/svg+xml</dc:format>
        <dc:type
           rdf:resource="http://purl.org/dc/dcmitype/StillImage" />
        <dc:title>Tux</dc:title>
        <dc:date>20 June 2012</dc:date>
        <dc:creator>
          <cc:Agent>
            <dc:title>Garrett LeSage</dc:title>
          </cc:Agent>
        </dc:creator>
        <cc:license
           rdf:resource="http://creativecommons.org/publicdomain/zero/1.0/" />
        <dc:contributor>
          <cc:Agent>
            <dc:title>Larry Ewing, the creator of the original Tux graphic</dc:title>
          </cc:Agent>
        </dc:contributor>
        <dc:subject>
          <rdf:Bag>
            <rdf:li>tux</rdf:li>
            <rdf:li>Linux</rdf:li>
            <rdf:li>penguin</rdf:li>
            <rdf:li>logo</rdf:li>
          </rdf:Bag>
        </dc:subject>
        <dc:rights>
          <cc:Agent>
            <dc:title>Larry Ewing, Garrett LeSage</dc:title>
          </cc:Agent>
        </dc:rights>
        <dc:source>https://github.com/garrett/Tux</dc:source>
      </cc:Work>
      <cc:License
         rdf:about="http://creativecommons.org/publicdomain/zero/1.0/">
        <cc:permits
           rdf:resource="http://creativecommons.org/ns#Reproduction" />
        <cc:permits
           rdf:resource="http://creativecommons.org/ns#Distribution" />
        <cc:permits
           rdf:resource="http://creativecommons.org/ns#DerivativeWorks" />
      </cc:License>
    </rdf:RDF>
  </metadata>
  <g
     inkscape:label="tux"
     inkscape:groupmode="layer"
     id="g1768"
     transform="translate(157.4087,-384.11682)">
    <path
       style="fill:#020204;fill-opacity:1;stroke:none;stroke-width:0.07165647"
       d="m -147.47163,384.09163 c -0.5556,-0.005 -1.11786,0.0912 -1.60709,0.31633 -0.52,0.23928 -0.94645,0.62206 -1.20811,1.07454 -0.26146,0.45212 -0.35805,0.96212 -0.38095,1.46607 -0.0225,0.49505 0.0229,0.99022 0.0555,1.48486 0.0339,0.51433 0.0539,1.02931 0.0603,1.54443 0.0298,0.16422 0.0426,0.33067 0.038,0.49681 -0.002,0.0841 -0.008,0.16885 -0.01,0.25314 -0.002,0.004 -0.004,0.009 -0.006,0.0135 -0.0748,0.15865 -0.16811,0.30902 -0.27024,0.45546 -0.19969,0.21307 -0.39913,0.42638 -0.5981,0.63994 -0.22145,0.23769 -0.44234,0.4756 -0.66551,0.71211 -0.27383,0.29019 -0.55423,0.58257 -0.73251,0.9228 -0.15319,0.29235 -0.22559,0.60996 -0.33056,0.91746 -0.11921,0.34921 -0.2811,0.68688 -0.46284,1.01583 -0.16781,0.30374 -0.35273,0.60032 -0.53792,0.8966 -0.13473,0.21555 -0.27163,0.43595 -0.31835,0.67705 -0.0369,0.19054 -0.0155,0.38715 0.0413,0.57408 0.002,0.008 0.006,0.0149 0.008,0.0224 -0.0346,0.0274 -0.0674,0.0555 -0.0962,0.0849 -0.10558,0.1078 -0.18046,0.21883 -0.24639,0.31815 -0.0659,0.0992 -0.12352,0.18749 -0.18437,0.25799 -0.0602,0.0698 -0.12506,0.12293 -0.18706,0.15295 -0.0656,0.0318 -0.15873,0.0525 -0.26726,0.0598 -0.10971,0.007 -0.23717,0.002 -0.38151,-10e-4 -0.14459,-0.003 -0.30767,-0.004 -0.48271,0.0274 -0.17727,0.0315 -0.36437,0.0961 -0.51833,0.22293 -0.16546,0.13632 -0.24935,0.30862 -0.28727,0.4728 -0.0374,0.1618 -0.0312,0.31302 -0.0209,0.44721 0.0231,0.29984 0.0764,0.5791 0.0921,0.84238 0.0156,0.26225 -0.008,0.51356 -0.10645,0.724 -0.0606,0.12897 -0.17546,0.27871 -0.26129,0.47959 -0.0431,0.10086 -0.0769,0.21491 -0.0792,0.34071 -0.002,0.12725 0.028,0.26303 0.11397,0.38826 0.11175,0.16284 0.28159,0.2596 0.44212,0.32094 0.15753,0.0602 0.30424,0.0876 0.42494,0.11535 0.27174,0.0625 0.55036,0.14803 0.84733,0.22391 0.96644,0.24694 1.93724,0.34248 2.79079,0.62939 0.41952,0.14101 0.88638,0.36547 1.45749,0.38413 0.36101,0.0118 0.7194,-0.0679 1.02815,-0.22487 0.30852,-0.15683 0.55926,-0.38628 0.72413,-0.65681 0.0918,-0.15059 0.15487,-0.31152 0.19005,-0.47643 0.27688,-0.045 0.55593,-0.0806 0.83739,-0.0861 0.0872,-0.002 0.17501,-10e-4 0.26172,-0.008 0.2412,0.0226 0.48406,0.031 0.72726,0.0228 0.0298,-0.001 0.0596,-0.003 0.0894,-0.004 0.0627,0.006 0.12589,0.009 0.18876,0.0122 0.42639,0.0212 0.85194,0.0566 1.27426,0.1111 0.37144,0.0479 0.74028,0.11069 1.10536,0.18631 0.0558,0.0115 0.11159,0.0239 0.16734,0.0359 0.0308,0.14071 0.086,0.28318 0.18493,0.4181 0.19067,0.25999 0.48496,0.41193 0.76132,0.51355 0.39324,0.1446 0.83761,0.21795 1.28335,0.16144 0.36598,-0.0464 0.70315,-0.17677 0.99195,-0.3532 0.28436,-0.17372 0.50619,-0.37774 0.72172,-0.55189 0.25207,-0.20366 0.51829,-0.38987 0.8022,-0.54654 0.42462,-0.23433 0.91353,-0.41393 1.40795,-0.62672 0.29058,-0.12506 0.61538,-0.2735 0.86862,-0.52811 0.11461,-0.11522 0.20649,-0.24585 0.27166,-0.38644 a 0.31008437,0.26499503 0 0 0 0.0136,-0.0371 c 0.0477,-0.1737 0.0175,-0.354 -0.0853,-0.50931 -0.075,-0.11335 -0.17509,-0.19445 -0.26952,-0.25762 -0.0938,-0.0627 -0.18175,-0.10814 -0.25292,-0.14919 -0.15171,-0.0875 -0.30092,-0.19207 -0.45631,-0.30251 -0.15553,-0.11053 -0.29702,-0.21374 -0.40536,-0.32324 -0.10719,-0.10835 -0.18267,-0.22621 -0.20793,-0.33756 -0.0154,-0.0677 -0.0155,-0.16393 -0.0278,-0.28613 -0.0139,-0.1383 -0.0466,-0.28159 -0.11198,-0.42174 -0.0443,-0.0949 -0.1077,-0.199 -0.21432,-0.29086 -0.14082,-0.12133 -0.3066,-0.17968 -0.44949,-0.21772 -0.002,-6.6e-4 -0.005,-0.001 -0.008,-0.002 0.1,-0.17671 0.17147,-0.36645 0.21374,-0.55892 0.0999,-0.45464 0.054,-0.9241 -0.0389,-1.37983 -0.12661,-0.62144 -0.33971,-1.22882 -0.61087,-1.81551 -0.19945,-0.43154 -0.43279,-0.85591 -0.7589,-1.22688 -0.31913,-0.36301 -0.72148,-0.66848 -1.03411,-1.0356 -0.16462,-0.1933 -0.30455,-0.40353 -0.4759,-0.59142 -0.0695,-0.12257 -0.13815,-0.24545 -0.20466,-0.36922 -0.20644,-0.38413 -0.39372,-0.77696 -0.63827,-1.1444 -0.038,-0.0572 -0.0782,-0.11342 -0.11936,-0.1692 -0.0314,-0.35133 -0.0757,-0.70266 -0.0967,-1.0544 -0.0421,-0.70538 0.009,-1.42462 -0.20722,-2.10625 -0.10555,-0.33236 -0.27384,-0.64958 -0.49037,-0.94002 -0.25371,-0.34032 -0.57554,-0.64529 -0.95789,-0.88204 -0.61008,-0.37777 -1.36541,-0.57237 -2.11875,-0.5793 z m 1.28008,2.36849 c 0.0844,0.003 0.16641,0.019 0.2532,0.0683 0.24092,0.13673 0.35812,0.29317 0.44836,0.48396 0.0247,0.0523 0.0484,0.14096 0.0195,0.16835 -0.12398,-0.21486 -0.30072,-0.408 -0.53352,-0.54012 -0.12032,-0.0683 -0.25504,-0.1179 -0.39599,-0.14385 0.0225,-0.0402 0.0797,-0.0341 0.12306,-0.0359 0.0289,-0.001 0.0573,-0.002 0.0854,-7.3e-4 z m -3.2911,0.1521 c 0.0998,0.001 0.19953,0.0221 0.28925,0.0552 0.10255,0.0379 0.20771,0.0945 0.29976,0.15319 0.0374,0.0238 0.0764,0.0483 0.1012,0.08 0.076,0.0972 0.11353,0.20812 0.1337,0.32277 -0.0816,-0.14882 -0.20225,-0.28912 -0.36448,-0.40282 -0.0876,-0.0614 -0.18557,-0.11533 -0.28812,-0.15319 -0.0753,-0.0278 -0.15808,-0.0462 -0.24143,-0.0524 0.009,-7.1e-4 0.0185,-9.2e-4 0.0277,-0.001 0.0143,-5.5e-4 0.0282,-0.002 0.0424,-10e-4 z m 2.92037,0.27582 c 0.0356,5e-4 0.0712,0.003 0.10645,0.007 0.14099,0.0167 0.27666,0.0621 0.39613,0.12821 0.23895,0.13222 0.40831,0.34428 0.50173,0.57408 0.086,0.21155 0.11166,0.43878 0.0969,0.66238 -0.0115,0.17549 -0.0483,0.35186 -0.13469,0.51137 -0.0414,0.0764 -0.0958,0.14813 -0.16053,0.21166 -0.0821,-0.0266 -0.16651,-0.0421 -0.24738,-0.0588 -0.10755,-0.0222 -0.2135,-0.0497 -0.3185,-0.0796 0.0485,-0.0145 0.0949,-0.0341 0.13711,-0.0592 0.0816,-0.0486 0.14744,-0.11535 0.1943,-0.19031 0.0469,-0.0749 0.0751,-0.15796 0.088,-0.24222 0.0228,-0.14883 -0.003,-0.30421 -0.0835,-0.43762 -0.0805,-0.13342 -0.21698,-0.24322 -0.38179,-0.29511 -0.0535,-0.0169 -0.11001,-0.0277 -0.16691,-0.0301 -0.019,-7.9e-4 -0.0381,-6.8e-4 -0.0571,5e-4 -0.081,0.005 -0.1599,0.0286 -0.22865,0.0656 -0.0687,0.037 -0.12742,0.0871 -0.17344,0.14434 -0.0921,0.11443 -0.13243,0.25484 -0.13895,0.39359 -0.005,0.10415 0.009,0.20962 0.049,0.30796 0.009,0.0228 0.0205,0.0451 0.0329,0.0668 -0.0612,-0.0283 -0.12236,-0.057 -0.18408,-0.0853 -0.0665,-0.0305 -0.13402,-0.0606 -0.20339,-0.0879 -0.0185,-0.0342 -0.0363,-0.0688 -0.0552,-0.10261 -0.0324,-0.0579 -0.071,-0.11359 -0.11667,-0.16435 -0.0421,-0.19497 -0.0406,-0.39562 0.0372,-0.58088 0.0883,-0.21032 0.26889,-0.38677 0.48441,-0.51331 0.0669,-0.0393 0.13757,-0.0744 0.21318,-0.0995 0.0995,-0.033 0.20657,-0.0483 0.31338,-0.0468 z m -2.96962,0.14628 c 0.10363,-0.005 0.20767,0.0172 0.30075,0.0564 0.0931,0.0392 0.17561,0.0952 0.24795,0.15877 0.14938,0.13132 0.25643,0.29546 0.32347,0.46941 0.061,0.15831 0.0885,0.32479 0.0955,0.49148 -0.0418,0.0473 -0.0805,0.0968 -0.11894,0.14628 -0.005,0.001 -0.0105,0.003 -0.0156,0.004 -0.0853,0.0253 -0.16846,0.0557 -0.24937,0.0899 0.0175,-0.12751 7.6e-4,-0.2587 -0.0437,-0.38171 -0.0447,-0.12368 -0.11877,-0.24289 -0.23462,-0.32628 -0.0553,-0.0398 -0.12002,-0.071 -0.19033,-0.0853 -0.0352,-0.007 -0.0717,-0.01 -0.10772,-0.008 -0.036,0.002 -0.0716,0.009 -0.10446,0.0222 -0.073,0.0284 -0.12962,0.0824 -0.16663,0.14324 -0.037,0.0608 -0.056,0.12849 -0.0691,0.19613 -0.0288,0.14877 -0.0299,0.30475 0.03,0.4466 0.0395,0.0937 0.10474,0.17866 0.18394,0.25169 0.038,0.035 0.0797,0.0676 0.12632,0.0936 -0.0413,0.0351 -0.0816,0.0712 -0.11951,0.10904 -3.6e-4,3.7e-4 -7.8e-4,6.2e-4 -0.001,9.7e-4 -0.0692,0.0489 -0.13686,0.0993 -0.20325,0.15101 -0.0816,-0.0744 -0.14405,-0.16339 -0.18862,-0.25799 -0.0935,-0.19848 -0.11185,-0.41599 -0.12987,-0.62939 -0.0199,-0.23569 -0.0396,-0.47864 0.048,-0.70277 0.0438,-0.11207 0.11486,-0.21772 0.21588,-0.29839 0.10102,-0.0807 0.2331,-0.135 0.37115,-0.14142 z m 3.07707,0.72169 c 0.012,-4.3e-4 0.0238,5e-5 0.0346,10e-4 0.0932,0.0101 0.18672,0.0643 0.24412,0.1367 0.0632,0.0797 0.12867,0.20188 0.0817,0.29171 -0.012,0.023 -0.0493,0.0363 -0.0741,0.0273 -0.0788,-0.0288 -0.0636,-0.15571 -0.11979,-0.21687 -0.0293,-0.0319 -0.0698,-0.0528 -0.10857,-0.073 -0.0399,-0.0209 -0.096,-0.0162 -0.12604,-0.0492 -0.0186,-0.0204 -0.0352,-0.0551 -0.0217,-0.079 0.0157,-0.0278 0.0536,-0.0376 0.0897,-0.0388 z m -2.89341,0.0508 c 0.0216,0.002 0.0438,0.01 0.0616,0.018 0.0768,0.0349 0.1391,0.10437 0.16435,0.17769 0.0278,0.0808 0.0434,0.19542 -0.0268,0.25229 -0.018,0.0145 -0.0545,0.0142 -0.0728,0 -0.0582,-0.0453 -0.003,-0.14044 -0.0307,-0.20462 -0.0146,-0.0335 -0.0426,-0.0616 -0.0691,-0.0887 -0.0274,-0.0279 -0.0771,-0.0404 -0.092,-0.075 -0.009,-0.0213 -0.0119,-0.0535 0.008,-0.0683 0.0152,-0.0115 0.0362,-0.0139 0.0578,-0.0114 z m 1.29526,0.56232 c 0.12839,0.002 0.25587,0.0185 0.3791,0.0505 0.0332,0.009 0.0658,0.0185 0.0982,0.0291 2.1e-4,6e-5 4.3e-4,1.8e-4 7.2e-4,2.5e-4 0.0108,0.004 0.0215,0.007 0.0322,0.011 10e-4,3.8e-4 0.002,8.2e-4 0.003,0.001 0.0168,0.006 0.0335,0.012 0.0501,0.0183 6e-5,2e-5 7e-5,1.2e-4 1.5e-4,1.2e-4 0.0493,0.0186 0.0979,0.0384 0.1459,0.0594 2.2e-4,6e-5 3.7e-4,1.8e-4 5.8e-4,2.4e-4 3.7e-4,1.9e-4 7.6e-4,3.2e-4 0.001,5e-4 0.0295,0.0129 0.0589,0.0261 0.088,0.0394 0.11591,0.0531 0.23095,0.10761 0.34802,0.15877 5e-5,4e-5 7e-5,7e-5 1.4e-4,1.3e-4 0.0159,0.007 0.0315,0.0143 0.0474,0.0211 0.0517,0.0219 0.10424,0.0424 0.15712,0.0621 0.0443,0.0169 0.0891,0.0328 0.13412,0.0483 4e-5,10e-6 7e-5,-1e-5 1.5e-4,0 0.18018,0.062 0.365,0.11424 0.55381,0.15319 0.0564,0.0116 0.11314,0.0227 0.16876,0.0365 0.0178,0.004 0.0356,0.009 0.0531,0.0142 7e-5,3e-5 2.2e-4,7e-5 2.9e-4,1.3e-4 0.02,0.006 0.0397,0.0122 0.059,0.0195 0.0653,0.0248 0.12798,0.0605 0.16422,0.11304 0.007,0.0104 0.0122,0.0218 0.0169,0.0332 10e-4,10e-4 0.002,0.002 0.003,0.003 0.007,0.008 0.0135,0.0166 0.0196,0.0254 0.004,0.007 0.009,0.0134 0.0125,0.0203 2.9e-4,4.4e-4 5.8e-4,8.8e-4 8.5e-4,10e-4 0.0152,0.0268 0.026,0.0554 0.0322,0.0848 1.4e-4,8.1e-4 4.3e-4,0.002 5.8e-4,0.002 0.01,0.0482 0.009,0.0977 0.002,0.14628 -0.0136,0.0972 -0.0493,0.19125 -0.0639,0.28831 -0.0113,0.075 -0.0106,0.15359 -0.0493,0.2216 -0.005,0.009 -0.0105,0.0172 -0.0166,0.0252 -0.006,0.008 -0.0126,0.0158 -0.0196,0.0233 -0.0429,0.0458 -0.10266,0.0804 -0.16535,0.10565 -0.0832,0.0335 -0.17292,0.053 -0.25917,0.0803 -0.39523,0.12485 -0.69512,0.40142 -1.05384,0.59034 -0.18871,0.0994 -0.39425,0.17463 -0.6069,0.22815 -0.22945,0.0577 -0.47038,0.0905 -0.70837,0.0701 -0.20267,-0.0174 -0.40212,-0.0745 -0.56887,-0.17442 -0.23612,-0.14158 -0.39264,-0.35771 -0.56942,-0.55249 -0.084,-0.0925 -0.17512,-0.18135 -0.27705,-0.25921 -0.0295,-0.0225 -0.0597,-0.0444 -0.0911,-0.0649 0.0157,0.005 0.0315,0.011 0.0473,0.0182 4e-5,1e-5 7e-5,-2e-5 1.5e-4,0 7e-5,4e-5 2.1e-4,6e-5 2.9e-4,1.2e-4 1.4e-4,6e-5 2.9e-4,1.9e-4 4.3e-4,2.5e-4 1.5e-4,6e-5 2.9e-4,1.9e-4 4.4e-4,2.5e-4 0.0157,0.007 0.0314,0.0156 0.0471,0.0249 0.023,0.0136 0.046,0.0288 0.0687,0.0462 0.0635,0.0488 0.12744,0.11081 0.2102,0.16836 0.22462,0.15619 0.51185,0.21654 0.78588,0.22039 0.27257,0.004 0.53386,-0.0443 0.78374,-0.0924 0.19621,-0.0378 0.39694,-0.0778 0.59384,-0.13985 0.30261,-0.0954 0.58276,-0.23933 0.82533,-0.41967 0.1099,-0.0817 0.20485,-0.16325 0.30771,-0.21845 0.0362,-0.0194 0.077,-0.037 0.11965,-0.0548 7e-5,-5e-5 2.1e-4,-7e-5 2.9e-4,-1.3e-4 5.8e-4,-2.5e-4 0.001,-4.9e-4 0.002,-7.2e-4 0.01,-0.004 0.0206,-0.009 0.0307,-0.013 0.01,-0.004 0.0201,-0.008 0.0301,-0.0126 0.015,-0.006 0.0293,-0.0123 0.0447,-0.0189 0.0323,-0.0139 0.0651,-0.0285 0.0982,-0.0452 0.0106,-0.005 0.0255,-0.0128 0.0426,-0.0249 0.0173,-0.0123 0.0365,-0.0292 0.0508,-0.0537 v -1.2e-4 c 0.0128,-0.0221 0.0182,-0.044 0.019,-0.0649 -0.0199,-0.003 -0.0398,-0.006 -0.0596,-0.009 -0.0356,-0.005 -0.072,-0.009 -0.10815,-0.009 -0.0361,-2.4e-4 -0.0718,0.003 -0.10616,0.0125 -0.0451,0.0124 -0.0857,0.0348 -0.12221,0.0605 -0.0365,0.0257 -0.0694,0.0549 -0.10346,0.083 -0.01,0.008 -0.0202,0.0158 -0.0302,0.0238 -0.0922,0.0731 -0.1913,0.13959 -0.29209,0.20389 -0.24606,0.15698 -0.50348,0.30512 -0.78914,0.40136 -0.18653,0.0628 -0.3826,0.10266 -0.57922,0.13621 -0.24742,0.0422 -0.49899,0.075 -0.7511,0.0667 -0.25211,-0.008 -0.50635,-0.0595 -0.71959,-0.17479 -0.0965,-0.0522 -0.18328,-0.11653 -0.27733,-0.17187 -0.0127,-0.007 -0.026,-0.0143 -0.039,-0.0213 -5.1e-4,-3.1e-4 -0.001,-5.6e-4 -0.002,-8.5e-4 -5.1e-4,-2.5e-4 -0.001,-4.3e-4 -0.002,-7.2e-4 -0.0172,-0.009 -0.0347,-0.0181 -0.0525,-0.0264 -2.2e-4,-1.2e-4 -4.4e-4,-2.4e-4 -7.3e-4,-3.7e-4 -0.007,-0.003 -0.0137,-0.006 -0.0206,-0.009 -0.0152,-0.007 -0.0305,-0.0131 -0.0461,-0.0188 -0.0121,-0.004 -0.0244,-0.008 -0.0368,-0.0118 -0.0128,-0.004 -0.0254,-0.008 -0.0385,-0.0114 -9.9e-4,-2.5e-4 -0.002,-3.8e-4 -0.003,-6.2e-4 -0.001,-3.2e-4 -0.002,-5.6e-4 -0.004,-8.6e-4 -1.5e-4,-3e-5 -2.9e-4,-6e-5 -4.4e-4,-1.2e-4 -0.0222,-0.005 -0.0446,-0.009 -0.0676,-0.0112 -0.0251,-0.002 -0.0506,-0.003 -0.0754,-0.007 -0.0109,-0.002 -0.0216,-0.005 -0.0318,-0.009 10e-4,0.0124 0.003,0.0255 0.008,0.0393 5.1e-4,0.002 0.002,0.003 0.002,0.005 -0.0158,-0.0131 -0.0302,-0.0273 -0.0414,-0.0434 -0.01,-0.0136 -0.0162,-0.0285 -0.0213,-0.0438 -0.002,-0.003 -0.004,-0.007 -0.005,-0.0104 -0.005,-0.0124 -0.007,-0.0255 -0.007,-0.0386 -1.5e-4,-0.0261 0.007,-0.0518 0.0133,-0.0774 0.0164,-0.0683 0.0251,-0.13826 0.0511,-0.20437 0.0248,-0.0631 0.0645,-0.12084 0.11043,-0.17479 0.0153,-0.018 0.0313,-0.0355 0.0477,-0.0526 0.0232,-0.0243 0.0478,-0.0477 0.0728,-0.0707 0.0113,-0.0105 0.0227,-0.0208 0.0343,-0.031 2.9e-4,-2.5e-4 4.4e-4,-5e-4 7.3e-4,-7.3e-4 10e-4,-10e-4 0.003,-0.002 0.004,-0.004 0.001,-0.001 0.003,-0.002 0.004,-0.004 0.0374,-0.0324 0.0764,-0.0632 0.11695,-0.0928 0.0535,-0.039 0.10883,-0.0763 0.1672,-0.1099 0.0574,-0.0577 0.11945,-0.11189 0.18479,-0.16301 0.0328,-0.0257 0.0667,-0.0504 0.10134,-0.0742 0.002,-0.002 0.005,-0.003 0.007,-0.005 0.0347,-0.0237 0.0704,-0.0464 0.10673,-0.0683 0.002,-10e-4 0.004,-0.003 0.006,-0.004 0.0382,-0.0228 0.0772,-0.0447 0.11709,-0.0654 0.0402,-0.0209 0.0812,-0.0406 0.12291,-0.0592 1e-5,-4e-5 -1e-5,-6e-5 0,-1.2e-4 0.0588,-0.0263 0.11911,-0.0501 0.18054,-0.0716 4e-5,-4e-5 7e-5,-6e-5 1.4e-4,-1.2e-4 0.0353,-0.0124 0.0708,-0.0245 0.10688,-0.0352 0.15205,-0.0451 0.31174,-0.0753 0.47234,-0.0858 0.0535,-0.004 0.10718,-0.005 0.16067,-0.004 z m 0.24285,0.21954 c -0.0334,0.001 -0.0647,0.007 -0.093,0.0207 -0.0173,0.008 -0.0364,0.0281 -0.0305,0.0443 0.002,0.006 0.005,0.0104 0.009,0.0147 0.001,0.001 0.002,0.002 0.004,0.004 0.002,0.002 0.005,0.004 0.008,0.006 0.007,0.005 0.0156,0.009 0.0253,0.0122 4e-5,2e-5 7e-5,-10e-6 1.4e-4,0 0.01,0.003 0.0208,0.006 0.0319,0.008 0.0117,0.002 0.0235,0.005 0.0353,0.007 0.002,3.7e-4 0.004,7.3e-4 0.005,10e-4 5e-5,10e-6 7e-5,-10e-6 1.5e-4,0 0.0165,0.003 0.0324,0.007 0.0458,0.0132 0.0473,0.0208 0.0855,0.0664 0.13867,0.0677 0.0508,0.001 0.1305,-0.0155 0.1371,-0.0586 0.009,-0.0569 -0.0882,-0.0925 -0.15073,-0.11329 -0.0503,-0.0168 -0.11036,-0.0284 -0.16606,-0.0259 z m -1.04206,0.0352 c -0.0339,0.004 -0.0718,0.0273 -0.0971,0.0557 -0.0127,0.0142 -0.0222,0.0295 -0.0265,0.0443 -0.004,0.0148 -0.003,0.029 0.005,0.0406 0.0103,0.0147 0.0413,0.0334 0.0625,0.0234 0.0319,-0.015 0.0584,-0.0688 0.093,-0.0899 0.0231,-0.014 0.0177,-0.0654 -0.009,-0.0729 -0.009,-0.002 -0.0177,-0.002 -0.0274,-10e-4 z m -0.80149,0.29851 0.0309,0.018 c -8.3e-4,5.6e-4 -0.002,10e-4 -0.002,0.002 z m 4.12736,1.33155 c 0.066,0.12484 0.12169,0.25358 0.18394,0.37989 0.0311,0.0631 0.0644,0.12536 0.0985,0.18728 0.0103,0.0187 0.0205,0.0374 0.0309,0.056 0.008,0.0134 0.0155,0.0268 0.0231,0.0402 0.10799,0.18933 0.22378,0.37562 0.33283,0.56462 0.0316,0.0548 0.0638,0.10935 0.0937,0.16484 0.25469,0.47333 0.42983,0.97781 0.51862,1.49323 0.33344,0.29423 0.61154,0.63413 0.82022,1.00286 0.60614,1.07101 0.60081,2.31884 0.43573,3.50015 -0.004,0.0316 -0.01,0.0632 -0.0146,0.0949 -0.0892,-0.0109 -0.17938,-0.0217 -0.26428,-0.0324 -0.08,-0.01 -0.17366,-0.0239 -0.28074,-0.0272 -0.0357,-10e-4 -0.0729,-9.2e-4 -0.11156,8.5e-4 -0.15854,0.007 -0.33916,0.0445 -0.49306,0.15781 -0.16502,0.12146 -0.23458,0.28228 -0.26059,0.42695 -0.0253,0.14068 -0.0114,0.26268 -0.003,0.36218 0.0459,0.56931 0.0489,1.13836 -0.0162,1.69871 -0.0191,0.0159 -0.038,0.0322 -0.0572,0.048 -0.49321,0.40832 -1.00474,0.8119 -1.61077,1.08788 -1.06107,0.48318 -2.37135,0.52316 -3.48981,0.147 -0.10122,-0.1788 -0.22759,-0.34102 -0.35837,-0.49014 -0.14137,-0.1612 -0.28762,-0.30855 -0.4248,-0.45279 0.0891,-0.006 0.17717,-0.0228 0.25888,-0.0535 0.10854,-0.0407 0.20547,-0.10627 0.26995,-0.19128 0.0793,-0.10452 0.10618,-0.23436 0.0903,-0.35818 -0.0159,-0.12381 -0.0725,-0.24198 -0.14832,-0.34835 -0.18525,-0.25984 -0.47786,-0.44779 -0.75933,-0.63412 -0.50562,-0.33472 -0.99645,-0.6857 -1.4714,-1.05173 -0.0959,-0.0739 -0.19217,-0.14757 -0.2867,-0.22282 -0.0586,-0.0467 -0.11648,-0.0945 -0.17273,-0.14349 -8.9e-4,-7.7e-4 -0.002,-0.002 -0.003,-0.002 v -1.2e-4 c -0.0951,-0.0831 -0.184,-0.17076 -0.25334,-0.27037 -0.10808,-0.15524 -0.1664,-0.3321 -0.20595,-0.50955 -0.10849,-0.48679 -0.0807,-0.99914 0.11312,-1.46619 0.0758,-0.18271 0.176,-0.35709 0.27265,-0.53247 0.16753,-0.30399 0.32614,-0.61379 0.54644,-0.89211 0.0143,-0.018 0.0297,-0.0354 0.0444,-0.0531 -0.129,0.32534 -0.26272,0.64941 -0.4221,0.96464 -0.0973,0.19251 -0.20421,0.38183 -0.28642,0.57942 -0.1886,0.45331 -0.24211,0.95387 -0.0993,1.41925 0.0573,0.18688 0.14548,0.36675 0.26073,0.53296 0.007,0.0105 0.0155,0.0206 0.023,0.031 -0.003,-0.21236 0.007,-0.42484 0.0314,-0.63594 0.082,-0.71638 0.31545,-1.41762 0.65544,-2.07617 0.22432,-0.43452 0.49507,-0.85154 0.80787,-1.2441 -0.03,-0.24789 -0.002,-0.50074 0.0812,-0.73953 0.13786,-0.39427 0.4203,-0.73819 0.69972,-1.07332 0.065,-0.078 0.13024,-0.15684 0.19019,-0.23809 0.0213,-0.0289 0.0417,-0.0581 0.0613,-0.0877 0.002,-0.003 0.004,-0.006 0.006,-0.009 0.0163,-0.0249 0.0317,-0.0501 0.0464,-0.0756 0.004,-0.008 0.009,-0.0152 0.0131,-0.0229 0.0122,-0.0221 0.0234,-0.0445 0.0341,-0.0671 0.004,-0.009 0.009,-0.0179 0.0129,-0.0271 0.0136,-0.0309 0.0259,-0.0621 0.0362,-0.0941 0.0688,-0.21435 0.0529,-0.44076 0.0629,-0.66286 1.4e-4,-0.003 5.8e-4,-0.006 7.2e-4,-0.009 0.0757,0.0596 0.14782,0.12248 0.2156,0.18861 0.17474,0.17048 0.33673,0.38209 0.59284,0.52641 0.18787,0.10587 0.40594,0.16014 0.62266,0.1766 0.25581,0.0194 0.50928,-0.0126 0.74882,-0.0677 0.21956,-0.0505 0.43459,-0.12185 0.63458,-0.21978 0.37604,-0.18414 0.67463,-0.43826 1.03113,-0.53527 0.0781,-0.0213 0.17118,-0.037 0.26867,-0.0723 0.0489,-0.0177 0.0986,-0.0406 0.14449,-0.0723 0.0289,-0.02 0.0556,-0.0438 0.0789,-0.0707 z m 2.14245,3.08897 c 0.31873,0.14858 0.65154,0.27889 0.94214,0.46261 0.5043,0.31882 0.86035,0.80169 0.96173,1.32476 0.0806,0.41596 0.0978,0.76421 -0.0566,1.24823 -0.0995,0.31171 -0.22826,0.61432 -0.35923,0.91637 -0.007,4.3e-4 -0.0139,10e-4 -0.0209,0.002 0.0277,-0.002 0.0554,-0.004 0.0833,-0.004 0.11129,-10e-4 0.22364,0.0112 0.33368,0.0272 0.16944,0.0246 0.33707,0.0576 0.50598,0.0847 0.0291,0.005 0.0583,0.009 0.0874,0.0137 -0.16772,-0.008 -0.33584,-0.01 -0.50371,-0.004 -0.11733,0.004 -0.23454,0.0107 -0.35142,0.0201 -0.16758,0.0135 -0.33783,0.0328 -0.48995,0.0944 -0.12104,0.049 -0.22561,0.12272 -0.33978,0.18254 -0.0244,0.0128 -0.0494,0.0249 -0.0747,0.0364 0.0596,-0.0925 0.1342,-0.17787 0.22525,-0.24902 0.11401,-0.0891 0.25319,-0.15571 0.40365,-0.18557 0.28785,-0.68969 0.5418,-1.40732 0.41217,-2.12457 -0.092,-0.50914 -0.38874,-0.99887 -0.86351,-1.32501 -0.28112,-0.1931 -0.61562,-0.32613 -0.89559,-0.5201 z m 1.43847,3.95633 c -0.029,0.003 -0.0579,0.007 -0.0866,0.0123 0.0286,-0.006 0.0576,-0.009 0.0866,-0.0123 z m -11.68278,0.20365 h 1.5e-4 c 0.0336,10e-4 0.0669,0.005 0.0999,0.0101 0.13197,0.0208 0.25674,0.0695 0.36774,0.13391 0.222,0.12889 0.38661,0.31656 0.54431,0.50215 0.36213,0.42621 0.71077,0.86125 1.02673,1.31348 0.25628,0.36683 0.49171,0.74573 0.78786,1.08994 0.0242,0.0281 0.0496,0.0554 0.0745,0.0831 0.17387,0.19346 0.36114,0.37816 0.53111,0.5742 0.0654,0.0755 0.12794,0.15339 0.18593,0.23349 0.0548,0.0756 0.10489,0.15348 0.14888,0.23361 0.005,0.009 0.009,0.0175 0.0138,0.0262 0.0157,0.0297 0.0303,0.0597 0.044,0.09 0.006,0.0139 0.0129,0.0278 0.0187,0.0418 0.003,0.008 0.006,0.0152 0.009,0.0228 0.0116,0.0292 0.0225,0.0586 0.0321,0.0884 0.01,0.0298 0.0175,0.06 0.0248,0.0902 0.002,0.007 0.003,0.0149 0.005,0.0223 0.007,0.0303 0.0127,0.0608 0.0172,0.0915 4e-5,3.1e-4 7e-5,6.5e-4 1.4e-4,9.7e-4 1.5e-4,0.001 1.5e-4,0.002 2.9e-4,0.003 0.004,0.0261 0.006,0.0523 0.008,0.0786 0.002,0.0302 0.003,0.0605 0.004,0.0908 7e-5,0.0105 8.6e-4,0.0209 7.2e-4,0.0314 -5.8e-4,0.0392 -0.003,0.0784 -0.008,0.11741 -0.003,0.0319 -0.008,0.0637 -0.0136,0.0953 -0.006,0.0344 -0.0141,0.0686 -0.0233,0.1025 v 1.2e-4 c -0.009,0.0331 -0.0194,0.0659 -0.0311,0.0984 -0.0289,0.0805 -0.0655,0.15904 -0.11085,0.23397 -0.13694,0.22648 -0.34702,0.42077 -0.6025,0.55237 -0.25548,0.13161 -0.55576,0.19974 -0.85386,0.19019 -0.47393,-0.0152 -0.90689,-0.21767 -1.34749,-0.36764 -0.89768,-0.30554 -1.87263,-0.40137 -2.79789,-0.63933 -0.28437,-0.0731 -0.56397,-0.15967 -0.85031,-0.22694 -0.12722,-0.0299 -0.25654,-0.0562 -0.37669,-0.10274 -0.12015,-0.0466 -0.2325,-0.11589 -0.29933,-0.21311 -0.0517,-0.0752 -0.0735,-0.16357 -0.0721,-0.25071 10e-4,-0.0872 0.0253,-0.17326 0.06,-0.2552 0.0694,-0.16389 0.18159,-0.31217 0.25732,-0.47402 0.12364,-0.26426 0.14583,-0.5557 0.12915,-0.83995 -0.0167,-0.28425 -0.0706,-0.56608 -0.0934,-0.85002 -0.0102,-0.12679 -0.014,-0.25513 0.0143,-0.37989 0.0283,-0.12476 0.0912,-0.24673 0.19828,-0.33489 0.0987,-0.0813 0.22983,-0.12951 0.36405,-0.15344 0.13422,-0.0239 0.27254,-0.0251 0.40961,-0.0224 0.13707,0.003 0.27439,0.009 0.41104,-6.2e-4 0.13664,-0.01 0.27383,-0.0359 0.39286,-0.094 0.11317,-0.0553 0.20575,-0.13747 0.28244,-0.22754 0.0767,-0.0901 0.13871,-0.18851 0.20226,-0.28577 0.0452,-0.0692 0.0919,-0.13799 0.14477,-0.20292 0.0215,-0.0264 0.0437,-0.0523 0.0677,-0.077 0.0832,-0.0858 0.1853,-0.16051 0.30572,-0.20317 0.0207,-0.007 0.042,-0.0133 0.0634,-0.0187 0.005,-10e-4 0.0107,-0.003 0.016,-0.004 0.0215,-0.005 0.0433,-0.009 0.0653,-0.012 0.0199,-0.003 0.0402,-0.004 0.0603,-0.005 0.03,-0.002 0.0601,-0.003 0.0901,-0.001 z m 10.08322,0.35891 c 0.0823,0.003 0.16452,0.0136 0.24625,0.0238 0.089,0.0111 0.17826,0.022 0.2674,0.0331 8.6e-4,1.2e-4 0.002,2.4e-4 0.003,3.7e-4 0.0821,0.0102 0.16402,0.0212 0.24554,0.0338 0.005,7.1e-4 0.009,0.001 0.0136,0.002 -0.0665,0.17832 -0.0866,0.3692 -0.0693,0.55625 0.0162,0.17443 0.0677,0.35423 0.20211,0.48626 0.10857,0.10669 0.26261,0.17324 0.42125,0.21336 0.27324,0.0691 0.57098,0.0654 0.8418,-0.0103 0.44701,-0.12792 0.84311,-0.3825 1.11089,-0.71405 0.081,-0.10024 0.15062,-0.20892 0.18806,-0.32616 0.0115,-0.0151 0.022,-0.0306 0.0329,-0.046 0.006,0.001 0.0115,0.003 0.0172,0.004 0.11746,0.0317 0.23316,0.0769 0.31949,0.15198 0.0656,0.0571 0.11129,0.12887 0.14562,0.20329 0.0511,0.11086 0.0788,0.22901 0.0906,0.34775 0.0104,0.10518 0.009,0.21157 0.0321,0.31524 0.0384,0.17054 0.1432,0.32606 0.2735,0.45933 0.1303,0.13328 0.28601,0.24653 0.44155,0.3583 0.15495,0.11136 0.31087,0.22223 0.47802,0.31985 0.0785,0.0458 0.15942,0.0887 0.2339,0.13913 0.0745,0.0504 0.14306,0.10909 0.18962,0.17987 0.0632,0.096 0.0824,0.21251 0.0529,0.31973 h -1.4e-4 c -0.052,0.11388 -0.12599,0.22041 -0.21815,0.31391 -0.20338,0.20633 -0.48588,0.3424 -0.76714,0.46491 -0.4797,0.20896 -0.97686,0.39233 -1.42782,0.64371 -0.30215,0.16842 -0.58102,0.36604 -0.8418,0.57905 -0.22302,0.18217 -0.43457,0.37678 -0.68467,0.53114 -0.25236,0.15575 -0.54403,0.26861 -0.85188,0.30808 -0.37441,0.048 -0.76126,-0.0141 -1.10834,-0.14336 -0.2432,-0.0906 -0.47716,-0.22012 -0.61725,-0.41264 -0.0312,-0.0429 -0.0563,-0.0881 -0.0776,-0.13464 -6e-5,-1.2e-4 -7e-5,-2.5e-4 -1.5e-4,-3.7e-4 -0.008,-0.0179 -0.0155,-0.036 -0.0224,-0.0543 -0.002,-0.005 -0.003,-0.009 -0.005,-0.0137 -0.006,-0.018 -0.0124,-0.0361 -0.0177,-0.0543 -10e-4,-0.004 -0.002,-0.008 -0.003,-0.0123 -0.0111,-0.0398 -0.0201,-0.0803 -0.0268,-0.12117 -0.007,-0.0419 -0.0113,-0.0842 -0.0145,-0.12651 -4.4e-4,-0.006 -6.6e-4,-0.0111 -0.001,-0.0166 -0.003,-0.0412 -0.004,-0.0825 -0.004,-0.12348 -6.5e-4,-0.40253 0.0867,-0.8008 0.1689,-1.19716 0.0683,-0.32934 0.13324,-0.65951 0.17515,-0.99206 0.008,-0.0602 0.014,-0.12041 0.0199,-0.18072 0.005,-0.0506 0.009,-0.1013 0.0135,-0.15198 0.04,-0.49568 0.033,-0.9941 -0.009,-1.48984 -0.009,-0.10163 -0.0185,-0.20419 -7.2e-4,-0.30493 0.0178,-0.10075 0.0663,-0.20125 0.15669,-0.2677 0.0835,-0.0614 0.19534,-0.0884 0.30529,-0.0936 0.0275,-10e-4 0.055,-10e-4 0.0825,-4.9e-4 z"
       id="path1726"
       inkscape:connector-curvature="0" />
  </g>
</svg>
