<?xml version="1.0" encoding="UTF-8" standalone="no"?>
<!-- Generator: Adobe Illustrator 19.0.0, SVG Export Plug-In . SVG Version: 6.00 Build 0)  -->

<svg
   xmlns:dc="http://purl.org/dc/elements/1.1/"
   xmlns:cc="http://creativecommons.org/ns#"
   xmlns:rdf="http://www.w3.org/1999/02/22-rdf-syntax-ns#"
   xmlns:svg="http://www.w3.org/2000/svg"
   xmlns="http://www.w3.org/2000/svg"
   xmlns:sodipodi="http://sodipodi.sourceforge.net/DTD/sodipodi-0.dtd"
   xmlns:inkscape="http://www.inkscape.org/namespaces/inkscape"
   version="1.1"
   id="Layer_1"
   x="0px"
   y="0px"
   viewBox="0 0 20 20"
   xml:space="preserve"
   sodipodi:docname="windows2.svg"
   width="20"
   height="20"
   inkscape:version="0.92.2 2405546, 2018-03-11"><metadata
   id="metadata42"><rdf:RDF><cc:Work
       rdf:about=""><dc:format>image/svg+xml</dc:format><dc:type
         rdf:resource="http://purl.org/dc/dcmitype/StillImage" /><dc:title></dc:title></cc:Work></rdf:RDF></metadata><defs
   id="defs40" /><sodipodi:namedview
   pagecolor="#ffffff"
   bordercolor="#666666"
   borderopacity="1"
   objecttolerance="10"
   gridtolerance="10"
   guidetolerance="10"
   inkscape:pageopacity="0"
   inkscape:pageshadow="2"
   inkscape:window-width="1570"
   inkscape:window-height="924"
   id="namedview38"
   showgrid="false"
   inkscape:zoom="24.760656"
   inkscape:cx="11.294805"
   inkscape:cy="7.5839401"
   inkscape:window-x="0"
   inkscape:window-y="33"
   inkscape:window-maximized="0"
   inkscape:current-layer="Layer_1" />
<g
   id="XMLID_108_"
   transform="matrix(0.06557377,0,0,0.06557379,0.05332772,0.05758041)">
	<path
   id="XMLID_109_"
   d="m 139.999,25.775 v 116.724 c 0,1.381 1.119,2.5 2.5,2.5 H 302.46 c 1.381,0 2.5,-1.119 2.5,-2.5 V 2.5 c 0,-0.726 -0.315,-1.416 -0.864,-1.891 -0.548,-0.475 -1.275,-0.687 -1.996,-0.583 L 142.139,23.301 c -1.229,0.179 -2.14,1.233 -2.14,2.474 z"
   inkscape:connector-curvature="0" />
	<path
   id="XMLID_110_"
   d="m 122.501,279.948 c 0.601,0 1.186,-0.216 1.644,-0.616 0.544,-0.475 0.856,-1.162 0.856,-1.884 V 162.5 c 0,-1.381 -1.119,-2.5 -2.5,-2.5 H 2.592 c -0.663,0 -1.299,0.263 -1.768,0.732 -0.469,0.469 -0.732,1.105 -0.732,1.768 l 0.006,98.515 c 0,1.25 0.923,2.307 2.16,2.477 l 119.903,16.434 c 0.113,0.014 0.227,0.022 0.34,0.022 z"
   inkscape:connector-curvature="0" />
	<path
   id="XMLID_138_"
   d="m 2.609,144.999 h 119.892 c 1.381,0 2.5,-1.119 2.5,-2.5 V 28.681 c 0,-0.722 -0.312,-1.408 -0.855,-1.883 -0.543,-0.475 -1.261,-0.693 -1.981,-0.594 L 2.164,42.5 C 0.923,42.669 -0.001,43.728 0,44.98 l 0.109,97.521 c 0.002,1.38 1.121,2.498 2.5,2.498 z"
   inkscape:connector-curvature="0" />
	<path
   id="XMLID_169_"
   d="m 302.46,305 c 0.599,0 1.182,-0.215 1.64,-0.613 0.546,-0.475 0.86,-1.163 0.86,-1.887 l 0.04,-140 c 0,-0.663 -0.263,-1.299 -0.732,-1.768 C 303.799,160.263 303.163,160 302.5,160 H 142.499 c -1.381,0 -2.5,1.119 -2.5,2.5 v 117.496 c 0,1.246 0.918,2.302 2.151,2.476 l 159.961,22.504 c 0.117,0.016 0.233,0.024 0.349,0.024 z"
   inkscape:connector-curvature="0" />
</g>
<g
   id="g7"
   transform="translate(0,-285)">
</g>
<g
   id="g9"
   transform="translate(0,-285)">
</g>
<g
   id="g11"
   transform="translate(0,-285)">
</g>
<g
   id="g13"
   transform="translate(0,-285)">
</g>
<g
   id="g15"
   transform="translate(0,-285)">
</g>
<g
   id="g17"
   transform="translate(0,-285)">
</g>
<g
   id="g19"
   transform="translate(0,-285)">
</g>
<g
   id="g21"
   transform="translate(0,-285)">
</g>
<g
   id="g23"
   transform="translate(0,-285)">
</g>
<g
   id="g25"
   transform="translate(0,-285)">
</g>
<g
   id="g27"
   transform="translate(0,-285)">
</g>
<g
   id="g29"
   transform="translate(0,-285)">
</g>
<g
   id="g31"
   transform="translate(0,-285)">
</g>
<g
   id="g33"
   transform="translate(0,-285)">
</g>
<g
   id="g35"
   transform="translate(0,-285)">
</g>
</svg>